<?xml version="1.0" standalone="no"?>
<!DOCTYPE svg PUBLIC "-//W3C//DTD SVG 20010904//EN"
 "http://www.w3.org/TR/2001/REC-SVG-20010904/DTD/svg10.dtd">
<svg version="1.0" xmlns="http://www.w3.org/2000/svg"
 width="1024.000000pt" height="905.000000pt" viewBox="0 0 1024.000000 905.000000"
 preserveAspectRatio="xMidYMid meet">

<g transform="translate(0.000000,905.000000) scale(0.100000,-0.100000)"
fill="#000000" stroke="none">
<path d="M5120 5966 c0 -3 7 -11 15 -19 13 -14 6 -16 -63 -22 -134 -11 -290
-35 -385 -60 -67 -17 -94 -20 -99 -12 -4 6 -2 15 5 20 19 12 -43 -3 -103 -25
-183 -70 -404 -219 -521 -353 -18 -20 -29 -39 -25 -43 4 -3 11 0 15 7 6 9 11
10 15 3 4 -6 -22 -46 -57 -89 -135 -168 -245 -364 -312 -558 -19 -55 -34 -94
-35 -87 0 7 -5 10 -10 7 -7 -4 -9 3 -5 22 5 27 4 26 -10 -5 -60 -129 -75 -493
-29 -717 31 -153 112 -364 134 -350 5 3 7 12 3 20 -3 8 -1 15 5 15 5 0 27 -33
48 -72 20 -40 55 -101 76 -136 21 -34 38 -67 38 -72 0 -6 4 -10 9 -10 15 0 22
-33 10 -44 -9 -8 -10 -6 -5 9 4 11 4 16 0 12 -4 -4 -16 1 -27 10 -19 17 -20
17 -9 -3 19 -35 85 -119 146 -185 147 -157 344 -292 536 -367 80 -31 145 -49
121 -34 -11 8 -11 11 0 16 8 3 3 4 -11 1 -14 -3 -19 -2 -12 1 6 3 9 11 5 17
-4 7 0 8 13 2 46 -19 219 -56 329 -70 220 -28 214 -27 180 -36 -24 -5 -25 -7
-7 -8 12 0 22 -6 22 -12 0 -9 28 -10 103 -5 258 17 476 80 669 194 45 27 56
38 53 55 -3 18 16 36 93 92 53 39 150 123 215 188 99 99 121 116 136 107 16
-8 27 3 81 78 110 154 205 374 245 567 18 90 34 316 23 343 -5 13 -7 13 -7 2
-1 -13 -3 -13 -10 -1 -7 11 -10 9 -14 -10 -2 -13 -5 1 -6 31 -1 61 -23 207
-46 315 -47 211 -152 446 -267 594 -40 50 -47 65 -37 73 11 8 10 9 -3 4 -23
-7 -33 11 -17 30 9 10 9 18 2 25 -8 8 -11 6 -10 -6 3 -30 -17 -26 -42 8 -14
18 -18 26 -11 20 19 -17 29 -16 26 2 -3 18 -14 30 -29 30 -7 0 -11 9 -9 20 2
17 1 17 -7 5 -9 -13 -11 -13 -11 1 0 18 -98 106 -112 101 -5 -1 -7 2 -4 7 10
15 -149 126 -265 186 -187 96 -348 144 -548 165 -107 10 -191 13 -191 6z m289
-146 c473 -96 830 -371 1058 -816 54 -104 100 -243 130 -384 27 -131 24 -420
-6 -560 -65 -305 -195 -546 -410 -761 -216 -215 -463 -348 -771 -415 -68 -15
-127 -19 -295 -19 -204 0 -214 1 -339 33 -143 36 -300 98 -421 167 -123 70
-112 71 26 2 135 -69 241 -106 395 -139 128 -28 462 -30 619 -5 286 46 508
155 714 352 118 113 272 327 315 440 9 24 6 20 -66 -75 -31 -41 -81 -98 -110
-126 -278 -269 -709 -347 -1070 -194 -95 40 -180 101 -273 195 -216 215 -296
449 -263 765 3 36 4 57 1 48 -6 -24 -30 -23 -38 2 -9 29 -43 47 -98 53 -42 4
-50 2 -70 -22 -14 -17 -32 -26 -49 -26 -27 0 -38 18 -18 30 13 8 13 25 1 25
-5 0 -12 -13 -16 -30 -6 -28 -25 -43 -25 -20 0 6 -4 10 -9 10 -4 0 -14 -21
-20 -47 -7 -27 -16 -64 -22 -84 -5 -20 -9 -48 -9 -63 0 -50 -17 -26 -36 52
-15 59 -19 111 -18 227 1 133 4 160 27 238 29 94 56 152 113 245 22 36 26 47
11 29 -21 -25 -25 -26 -31 -12 -9 23 -7 33 3 17 7 -11 9 -11 14 1 5 12 -1 15
-26 11 -18 -2 -27 0 -20 4 13 8 8 20 -21 42 -18 14 -19 13 -14 -2 9 -21 -2
-31 -19 -17 -9 8 -13 8 -13 1 0 -6 -10 -22 -22 -36 -44 -47 -54 -62 -99 -141
-80 -140 -103 -199 -141 -355 -25 -106 -30 -147 -31 -267 -1 -79 -3 -143 -5
-143 -1 0 -7 11 -12 24 -7 18 -14 22 -34 19 -14 -3 -26 -12 -26 -19 0 -8 -7
-14 -15 -14 -18 0 -20 21 -3 38 9 9 9 12 1 12 -7 0 -15 -4 -18 -10 -3 -5 -14
-10 -24 -10 -10 0 -29 -12 -44 -27 -97 -103 -93 -95 -73 -158 3 -11 -3 -1 -14
21 -49 102 -77 358 -60 542 35 379 171 673 430 933 214 214 429 336 716 405
55 13 134 28 175 34 114 14 348 4 468 -20z m701 -205 c0 -12 -19 -12 -23 0 -4
9 -1 12 9 8 7 -3 14 -7 14 -8z m72 -60 c15 -13 24 -26 21 -29 -4 -3 1 -6 11
-6 10 0 14 -5 11 -11 -4 -5 1 -20 11 -32 10 -12 2 -6 -18 13 -20 19 -33 39
-31 43 3 5 -3 7 -13 5 -13 -2 -19 3 -18 14 1 9 -4 14 -11 12 -6 -3 -18 3 -26
12 -13 15 -11 16 11 9 14 -4 37 -18 52 -30z m-1782 -1235 c0 -5 -2 -10 -4 -10
-3 0 -8 5 -11 10 -3 6 -1 10 4 10 6 0 11 -4 11 -10z m-83 -42 c-3 -8 -6 -5 -6
6 -1 11 2 17 5 13 3 -3 4 -12 1 -19z m-360 -340 c-3 -7 -5 -2 -5 12 0 14 2 19
5 13 2 -7 2 -19 0 -25z m-30 -30 c-3 -8 -6 -5 -6 6 -1 11 2 17 5 13 3 -3 4
-12 1 -19z"/>
<path d="M3990 5251 c0 -6 4 -13 10 -16 6 -3 7 1 4 9 -7 18 -14 21 -14 7z"/>
<path d="M3960 5198 l-23 -33 28 27 c16 15 26 30 23 33 -3 4 -16 -9 -28 -27z"/>
<path d="M4510 5105 c-18 -19 -26 -22 -32 -13 -6 10 -8 10 -8 1 0 -23 15 -21
50 8 19 16 30 29 24 29 -6 0 -21 -11 -34 -25z"/>
<path d="M4415 5020 c-3 -5 -1 -10 4 -10 6 0 11 5 11 10 0 6 -2 10 -4 10 -3 0
-8 -4 -11 -10z"/>
<path d="M6158 5020 c-3 -11 -113 -17 -154 -9 -5 1 -20 1 -33 0 -21 -1 -23 -5
-18 -33 3 -18 3 -51 -2 -73 -6 -33 -11 -40 -28 -38 -14 2 -31 -9 -47 -27 l-25
-30 -124 0 c-124 0 -125 0 -131 -24 -3 -14 -3 -32 0 -40 3 -9 2 -16 -4 -16 -5
0 -9 12 -7 28 2 15 6 61 9 102 5 65 4 73 -8 57 -12 -15 -15 -15 -26 -2 -18 22
-28 18 -26 -10 1 -27 25 -43 36 -25 8 13 20 -12 19 -38 0 -14 -2 -13 -9 3 l-9
20 -1 -20 c-1 -18 -2 -17 -11 4 -24 60 -12 -24 22 -154 6 -22 12 -53 14 -70
l4 -30 -7 30 c-6 23 -10 8 -15 -66 -25 -320 -188 -563 -461 -690 l-61 -28 40
-2 c219 -12 454 85 615 252 66 69 133 170 164 245 15 38 34 81 41 95 8 14 17
39 20 55 3 16 11 52 19 79 l13 50 16 -55 c70 -238 36 -496 -95 -718 -18 -31
-76 -100 -128 -153 -82 -82 -108 -102 -190 -142 -121 -60 -227 -87 -344 -88
l-91 -1 60 -28 c92 -45 169 -61 306 -67 285 -12 517 79 736 290 86 83 177 215
167 243 -4 15 -4 16 4 5 8 -11 17 -1 40 45 27 54 73 179 71 193 0 3 -7 -7 -15
-24 -15 -29 -15 -29 -10 25 2 30 2 46 -1 35 -8 -32 -23 -42 -34 -22 -6 9 -19
17 -30 17 -11 0 -25 5 -32 10 -68 58 -77 61 -77 30 0 -21 -15 -27 -25 -10 -3
6 -1 10 4 10 7 0 7 7 -1 20 -7 11 -21 20 -30 20 -10 0 -18 5 -18 11 0 5 3 8 8
6 15 -10 14 345 -2 461 -21 147 -84 334 -98 292z m-581 -222 c-3 -8 -6 -5 -6
6 -1 11 2 17 5 13 3 -3 4 -12 1 -19z m656 -663 c-3 -9 -8 -14 -10 -11 -3 3 -2
9 2 15 9 16 15 13 8 -4z"/>
<path d="M4933 4628 c-66 -71 -108 -134 -143 -215 -118 -280 -55 -611 157
-816 49 -48 101 -87 115 -87 4 0 -8 24 -27 54 -39 62 -54 116 -55 196 0 112
58 181 188 224 115 39 141 75 97 140 -20 30 -24 45 -19 72 4 25 2 35 -8 39
-10 4 -13 15 -10 32 4 19 -1 31 -19 44 l-24 18 22 40 c13 22 20 46 17 54 -3 8
-34 27 -68 41 -74 32 -101 57 -111 106 -9 42 -28 82 -48 98 -11 10 -23 2 -64
-40z"/>
<path d="M4456 4601 c-15 -17 -15 -19 -1 -25 10 -3 14 -2 10 5 -4 5 -1 16 5
24 18 22 6 18 -14 -4z"/>
<path d="M4677 4438 c-11 -28 -23 -46 -25 -40 -4 14 -52 16 -52 3 0 -14 28
-33 39 -27 5 4 11 -1 13 -10 2 -8 15 16 29 55 31 82 28 96 -4 19z"/>
<path d="M4640 4451 c0 -6 4 -13 10 -16 6 -3 7 1 4 9 -7 18 -14 21 -14 7z"/>
<path d="M4338 4405 c-12 -28 -13 -33 -2 -24 8 6 14 18 14 26 0 8 4 11 10 8 6
-3 7 1 4 9 -8 21 -7 21 -26 -19z"/>
<path d="M3651 4344 c0 -11 3 -14 6 -6 3 7 2 16 -1 19 -3 4 -6 -2 -5 -13z"/>
<path d="M6501 4234 c0 -11 3 -14 6 -6 3 7 2 16 -1 19 -3 4 -6 -2 -5 -13z"/>
<path d="M3650 4195 c0 -19 4 -35 8 -35 4 0 6 16 4 35 -2 19 -6 35 -8 35 -2 0
-4 -16 -4 -35z"/>
<path d="M4285 2331 c-89 -40 -144 -144 -129 -243 10 -57 61 -128 114 -158 81
-45 218 -27 270 35 11 13 9 20 -14 44 l-28 29 -35 -24 c-69 -46 -162 -23 -196
49 -31 65 -18 125 38 177 37 34 110 35 155 1 l32 -23 31 30 c36 36 30 49 -37
81 -54 27 -146 28 -201 2z"/>
<path d="M5219 2340 c-112 -33 -179 -180 -135 -294 61 -159 289 -194 391 -60
117 154 16 365 -175 363 -30 0 -67 -4 -81 -9z m156 -98 c72 -53 71 -178 -3
-231 -37 -26 -102 -28 -142 -5 -87 52 -79 209 13 250 38 17 99 11 132 -14z"/>
<path d="M6355 2337 c-109 -43 -167 -160 -135 -275 23 -87 125 -162 220 -162
74 0 168 56 200 121 61 119 10 263 -112 314 -43 18 -130 19 -173 2z m164 -96
c16 -12 35 -38 41 -57 33 -99 -24 -194 -115 -194 -89 0 -135 47 -135 137 0
118 115 180 209 114z"/>
<path d="M6875 2337 c-52 -21 -85 -49 -111 -92 -68 -117 -26 -258 96 -321 49
-25 152 -23 205 4 152 78 165 290 24 388 -35 24 -53 29 -113 31 -39 1 -84 -3
-101 -10z m140 -81 c48 -21 75 -68 75 -135 0 -49 -3 -57 -39 -92 -35 -35 -44
-39 -88 -39 -81 0 -133 56 -133 142 0 102 91 163 185 124z"/>
<path d="M3770 2125 l0 -215 165 0 165 0 0 40 0 40 -120 0 -120 0 0 50 0 50
105 0 105 0 0 40 0 40 -105 0 -105 0 0 45 0 45 115 0 c125 0 134 4 121 55 l-6
25 -160 0 -160 0 0 -215z"/>
<path d="M4620 2125 l0 -215 48 0 47 0 -3 66 c-5 97 0 110 45 112 21 1 62 -1
91 -4 l52 -5 0 -85 0 -84 45 0 45 0 0 215 0 215 -45 0 -45 0 0 -85 0 -85 -95
0 -95 0 0 85 0 85 -45 0 -45 0 0 -215z"/>
<path d="M5788 2175 c-1 -91 -2 -186 -3 -212 l0 -48 48 -3 47 -3 0 70 0 71 40
0 c39 0 42 -2 86 -70 l45 -70 55 0 55 0 -52 77 c-49 72 -51 77 -33 90 10 7 21
13 24 13 14 0 50 80 50 110 0 53 -29 100 -74 121 -33 15 -66 19 -163 19 l-123
0 -2 -165z m246 66 c11 -12 16 -31 14 -52 -4 -43 -34 -59 -110 -59 l-58 0 0
65 0 65 68 0 c55 0 72 -4 86 -19z"/>
<path d="M7279 2338 c-4 -16 -5 -173 -1 -285 l5 -143 39 0 38 0 1 88 c1 48 2
108 2 135 1 26 4 47 8 47 4 0 31 -38 61 -85 29 -47 55 -85 58 -85 3 0 32 42
65 92 l60 92 3 -142 3 -142 44 0 45 0 0 215 0 215 -49 0 -49 0 -58 -90 c-31
-49 -61 -87 -65 -84 -4 2 -31 43 -60 89 l-52 85 -48 0 c-27 0 -49 -1 -50 -2z"/>
<path d="M2360 2290 c0 -29 1 -29 63 -32 l62 -3 3 -167 2 -168 35 0 35 0 0
170 0 170 65 0 65 0 0 30 0 30 -165 0 -165 0 0 -30z"/>
<path d="M2770 2120 l0 -200 35 0 35 0 0 85 0 85 95 0 95 0 0 -85 0 -85 35 0
35 0 0 200 0 200 -35 0 -35 0 0 -80 0 -80 -85 0 c-47 0 -88 -1 -92 -2 -5 -2
-9 34 -11 80 l-3 82 -34 0 -35 0 0 -200z"/>
<path d="M3210 2120 l0 -200 155 0 155 0 0 30 0 29 -117 3 -118 3 0 50 0 50
103 3 102 3 0 29 0 30 -98 0 c-54 0 -101 2 -103 4 -2 2 -2 27 -1 55 l4 51 114
0 113 0 -2 30 -2 30 -152 0 -153 0 0 -200z"/>
</g>
</svg>
